<?xml version="1.0" encoding="utf-8"?>
<!-- Generator: Adobe Illustrator 24.1.0, SVG Export Plug-In . SVG Version: 6.00 Build 0)  -->
<svg version="1.1" xmlns="http://www.w3.org/2000/svg" xmlns:xlink="http://www.w3.org/1999/xlink" x="0px" y="0px"
	 viewBox="0 0 512 512" style="enable-background:new 0 0 512 512;" xml:space="preserve">
<style type="text/css">
	.st0{fill:#2860CC;}
	.st1{fill:#167EE6;}
	.st2{fill:#FFFFFF;}
	.st3{fill:#E6F3FF;}
	.st4{fill:#BDD6FF;}
</style>
<g id="Layer_1">
	<path class="st0" d="M83.5,406.3H16.7c-9.2,0-16.7-7.5-16.7-16.7V289.4c0-9.2,7.5-16.7,16.7-16.7h66.8c9.2,0,16.7,7.5,16.7,16.7
		v100.2C100.2,398.8,92.7,406.3,83.5,406.3z"/>
	<g>
		<path class="st1" d="M512,89c0-27.6-22.5-50.1-50.1-50.1h-345C89.3,39,66.8,61.4,66.8,89v169.1H512V89z"/>
		<path class="st1" d="M83.5,239.3H16.7c-9.2,0-16.7-7.5-16.7-16.7V122.4c0-9.2,7.5-16.7,16.7-16.7h66.8c9.2,0,16.7,7.5,16.7,16.7
			v100.2C100.2,231.8,92.7,239.3,83.5,239.3z"/>
	</g>
	<path class="st0" d="M66.8,256v167c0,27.6,22.5,50.1,50.1,50.1h345c27.6,0,50.1-22.5,50.1-50.1V256H66.8z"/>
	<path class="st2" d="M428.5,339.5c-9.2,0-16.7-7.5-16.7-16.7V189.2c0-9.2,7.5-16.7,16.7-16.7c9.2,0,16.7,7.5,16.7,16.7v133.6
		C445.2,332,437.7,339.5,428.5,339.5z"/>
	<path class="st3" d="M411.8,256v66.8c0,9.2,7.5,16.7,16.7,16.7c9.2,0,16.7-7.5,16.7-16.7V256H411.8z"/>
	<path class="st2" d="M320,302c8.8-13.2,13.9-29,13.9-46s-5.1-32.8-13.9-46l42.4-42.4c6.5-6.5,6.5-17.1,0-23.6s-17.1-6.5-23.6,0
		l-42.4,42.4c-13.2-8.8-29-13.9-46-13.9s-32.8,5.1-46,13.9L162.1,144c-6.5-6.5-17.1-6.5-23.6,0s-6.5,17.1,0,23.6l42.4,42.4
		c-8.8,13.2-13.9,29-13.9,46s5.1,32.8,13.9,46l-42.4,42.4c-6.5,6.5-6.5,17.1,0,23.6s17.1,6.5,23.6,0l42.4-42.4
		c13.2,8.8,29,13.9,46,13.9s32.8-5.1,46-13.9l42.4,42.4c6.5,6.5,17.1,6.5,23.6,0c6.5-6.5,6.5-17.1,0-23.6L320,302z M200.3,256
		c0-27.6,22.5-50.1,50.1-50.1s50.1,22.5,50.1,50.1s-22.5,50.1-50.1,50.1S200.3,283.6,200.3,256z"/>
	<path class="st3" d="M300.5,256c0,27.6-22.5,50.1-50.1,50.1s-50.1-22.5-50.1-50.1H167c0,17,5.1,32.8,13.9,46l-42.4,42.4
		c-6.5,6.5-6.5,17.1,0,23.6s17.1,6.5,23.6,0l42.4-42.4c13.2,8.8,29,13.9,46,13.9s32.8-5.1,46-13.9l42.4,42.4
		c6.5,6.5,17.1,6.5,23.6,0c6.5-6.5,6.5-17.1,0-23.6L320,302c8.8-13.2,13.9-29,13.9-46H300.5z"/>
	<circle class="st2" cx="250.4" cy="256" r="16.7"/>
	<path class="st3" d="M250.4,272.7c9.2,0,16.7-7.5,16.7-16.7h-33.4C233.7,265.2,241.2,272.7,250.4,272.7z"/>
</g>
<g id="图层_2">
	<path class="st4" d="M408,443.5H178.7c-36.5,0-66-29.5-66-66V132.8c0-36.5,29.5-66,66-66H408c36.5,0,66,29.5,66,66v244.6
		C474,413.9,444.5,443.5,408,443.5z"/>
</g>
</svg>
